<svg xmlns="http://www.w3.org/2000/svg" width="621.075" height="423.277" viewBox="0 0 164.326 111.992"><path d="M149.11 53.156c-4.092.219-7.595 2.901-9.97 6.06-2.649 3.777-3.692 8.382-4.468 12.85-.666 4.446-1.134 8.919-1.715 13.376-3.501-5.31-8.673-9.477-11.277-15.377-.809-1.76-1.158-3.73-.81-5.646-2.194-.038-4.406-.308-6.588.083-5.016.695-9.8 3.969-11.64 8.75-1.112 2.923-1.04 6.21.004 9.142l4.613-4.42c-1.214-2.063-1.755-4.84-.4-6.966 1.416-2.035 4.093-2.538 6.413-2.719.746-.062 1.494-.064 2.242-.066-.71 6.197-1.356 12.403-2.098 18.596-.275 1.793-.688 3.743-2.173 4.956-.395.472-.896.703-1.505.507-.603 0-1.286-.223-1.843-.09l-3.93 3.76q5.692.287 11.386.572l3.712-3.595-4.87-.438c1.453-1.147 2.687-2.659 3.068-4.503.68-2.86.769-5.82 1.165-8.726l.541-4.846c2.92 5.585 7.767 9.815 11.13 15.099 1.488 2.509 2.133 5.386 2.87 8.174 1.175-2.456 2.424-4.889 3.555-7.358.928-7.183 1.763-14.4 2.752-21.555.549-3.117 1.058-6.358 2.687-9.129 1.134-1.94 3.55-3.002 5.749-2.46.971.226 1.855.705 2.714 1.194l4.264-4.212c-1.776-.692-3.658-1.152-5.578-1.013m-80.267 1.6c-4.176.21-7.866 2.757-10.505 5.837a19.8 19.8 0 0 0-2.516 3.826c-6.195.024-12.391-.048-18.585.036-3.916.156-7.983 1.246-10.882 3.998a12.4 12.4 0 0 0-4.161 9.294c-.051 1.587.322 3.144.778 4.653l4.648-4.425c-1.243-2.077-1.761-4.902-.345-7.023 1.24-1.723 3.452-2.323 5.422-2.565 2.007-.256 4.035-.135 6.052-.164-.697 6.118-1.35 12.242-2.065 18.356-.372 2.141-1.046 4.493-2.914 5.818l-2.538-.278-4.017 3.839q6.302.284 12.605.565 1.892-1.819 3.784-3.635c-1.986-.105-3.972-.205-5.958-.308 1.595-.878 2.912-2.308 3.35-4.101.753-2.721.776-5.571 1.17-8.353l1.327-11.903h10.862c-.92 3.34-.999 6.828-1.461 10.245-.68 6.145-1.379 12.288-2.049 18.434l4.493-1.842c.364-2.65.455-5.319 1.048-7.912.886-3.278 2.812-6.456 5.52-8.638.947-.68 2.164-1.332 3.358-1.051.625.723.26 1.805.28 2.679-.392 4.431-1.475 8.893-1.592 13.397-.053 1.227.43 2.797 1.831 3.023 1.789.264 3.308-1.042 4.573-2.116 1.21-1.126 2.513-2.324 3.03-3.938.167 2.668 1.931 5.475 4.71 5.994 2.984.542 5.834-1.138 7.883-3.151 1.112-1.159 2.377-2.323 2.908-3.875.23-.912-.582-1.56-1.238-2.022-1.041 2.117-2.479 4.44-4.944 5.034-1.503.402-3.362-.027-4.092-1.512-.51-.885-.716-1.906-.84-2.908 4.103-1.18 7.924-3.76 10.098-7.468.958-1.771 1.496-4.04.59-5.936-.882-1.581-3.007-1.642-4.557-1.192-3.098.919-5.281 3.524-7.083 6.052-1.997 2.86-3.43 6.267-3.483 9.76-.255-.428-.724-.648-1.103-.947-.928 1.532-1.694 3.346-3.28 4.321-.581.398-.563-.398-.534-.77.132-3.236.806-6.42 1.217-9.652.236-2.2.879-4.417.54-6.638-.145-1.273-1.223-2.415-2.562-2.362-2.471.025-4.558 1.627-6.38 3.123-1.614 1.368-3.043 2.945-4.313 4.631.53-4.512.943-9.077 1.55-13.543.469-2.69 1.29-5.626 3.558-7.375 1.783-1.346 4.231-1.362 6.285-.687q2.14-2.087 4.281-4.172c-1.235-.276-2.48-.53-3.754-.452m105.42 18.618c-.932.946-2.008 1.8-2.852 2.8-1.352 4.075-3.148 7.992-5.152 11.789-.456-3.872-.83-7.81-2.13-11.511-.558-1.521-1.697-3.245-3.52-3.224-1.812.125-3.066 1.69-4.036 3.06-.091-.124-.09-.724-.22-1.016-.38-1.483-2.01-2.2-3.442-2.03-3.028.19-5.412 2.41-7.227 4.637-2.87 3.527-5.041 7.973-4.669 12.613.17 2.64 1.88 5.414 4.613 5.988 2.942.588 5.788-1.028 7.842-2.994 1.162-1.2 2.487-2.4 3.047-4.012.234-.913-.58-1.564-1.241-2.022-1.044 2.147-2.523 4.504-5.036 5.052-1.515.386-3.354-.116-4.045-1.617-.472-.867-.675-1.852-.789-2.823 4.1-1.18 7.923-3.76 10.095-7.468.16-.715.427.182.819.203.674.44.97.166.99-.588.256-.98.465-2.286 1.522-2.71.967-.122 1.29 1.058 1.547 1.771.642 2.524.882 5.13 1.321 7.693.493 3.379.632 6.782.627 10.226q2.235-2.016 4.465-4.034a78 78 0 0 1 5.302-11.575c.951 5.055 1.91 10.087 2.276 15.238-.066.91.647-.317.982-.51.89-.938 1.908-1.795 2.722-2.781 1.301-3.703 3.478-7.012 5.456-10.38 1.215-2.094 2.627-4.213 2.968-6.654.17-1.48-.923-2.73-2.187-3.345-.449.083-.838.745-1.265 1.043l-2.346 2.2c.903.57 1.96 1.45 1.637 2.65-.608 2.581-2.037 4.878-3.302 7.184-.533.942-1.099 1.865-1.657 2.793-.762-4.419-1.524-8.843-2.023-13.3q-.151-1.548-.305-3.095zm-91.124 3.87c.997-.044 1.913.735 1.89 1.753.253 2.21-1.507 4.064-3.393 4.933-1.158.528-2.486.802-3.752.595.372-2.47 1.248-5.094 3.274-6.703a2.9 2.9 0 0 1 1.98-.577m67.632 0c1.032-.048 1.937.785 1.9 1.825.204 2.302-1.711 4.174-3.702 4.993-1.084.426-2.297.663-3.455.46.384-2.518 1.286-5.218 3.416-6.798a2.9 2.9 0 0 1 1.84-.48m6.497 35.64c-2.62.118-5.089 1.265-7.151 2.823-4.669-1.8-10.342-.984-14.147 2.315-3.819 3.161-5.826 8.022-6.292 12.859-.676 6.178-1.378 12.354-2.056 18.531-.04 1.54-.396 3.353.678 4.645 1.101 1.156 2.926.632 4.068-.176 1.726-1.2 3.31-2.718 4.315-4.577.397-.814.703-2.052-.222-2.639-.447-.268-1.051-.782-1.075.082-.535 1.522-1.409 3.078-2.838 3.92-.535.26-.41-.654-.486-.971.013-2.888.543-5.747.804-8.619a1113 1113 0 0 0 1.48-13.61c.245-1.741.628-3.56 1.306-5.116a6 6 0 0 1 4.249-3.66c2.199-.532 4.573-.504 6.633.301.468.142-.372.674-.444.997-2.343 3.489-3.315 7.679-3.653 11.81-.641 5.773-1.316 11.544-1.95 17.317-.033 1.588-.409 3.39.546 4.794.911 1.208 2.69.902 3.816.189 1.788-1.122 3.362-2.647 4.472-4.44.51-.87 1.011-2.293-.025-2.992-.447-.27-1.064-.787-1.08.082-.515 1.532-1.433 3.044-2.828 3.917-.554.254-.432-.708-.496-1.043.045-2.996.572-5.962.847-8.943.61-5.176 1.091-10.37 1.787-15.535.397-2.21.824-4.44 2.238-6.253 1.66-2.007 4.657-2.173 6.987-1.433.479-.136.82-.788 1.247-1.118q1.512-1.535 3.022-3.072c-1.237-.262-2.483-.456-3.752-.384m-31.134 8.125c-1.14 1.286-2.635 2.215-4.227 2.847l-2.619 6.424c2.675-1.713 5.639-3.336 7.354-6.104.596-1.015.993-2.44.116-3.422-.17-.538-.391.123-.624.255m-50.3.652c-4.497.171-8.76 2.335-11.825 5.565-3.572 3.565-5.806 8.435-6.022 13.475-.285 4.08.686 8.47 3.632 11.474 1.962 2.114 4.93 3.135 7.79 2.866a18 18 0 0 0 3.774-.62c4.876 4.247 10.498 7.76 16.683 9.765 3.407 1.073 7.321 1.499 10.593-.227 2.563-1.346 4.972-3.695 5.176-6.724.106-.802-.15-1.582-.294-2.362q-2.526 1.374-5.05 2.754c.694 1.155.764 2.755-.236 3.763-1.136 1.313-3.13 1.24-4.572 1.011-4.574-.716-8.578-3.298-12.203-6.028-1.766-1.351-3.37-2.737-4.995-4.225 4.153-2.766 7.438-6.955 8.61-11.833.893-3.743 1.02-7.784-.254-11.457-1.193-3.389-4.032-6.371-7.683-7.014-1.027-.208-2.08-.23-3.123-.183m-1.854 2.85c2.564-.076 4.757 1.69 6.006 3.793 2.384 3.763 2.523 8.457 1.889 12.735-.532 3.612-2.254 7.191-5.28 9.366a19 19 0 0 0-1.412-1.675l-3.348 3.426c-2.751-.155-5.35-1.761-6.663-4.178-1.556-2.721-1.877-5.895-1.815-8.942.075-4.597 1.597-9.424 5.16-12.525a8.32 8.32 0 0 1 5.463-2m36.614 6.758q-2.004.675-4.01 1.354c-.409 2.455-.583 4.957-1.177 7.378-.974 3.372-3.038 6.37-5.535 8.812-.969.856-2.189 1.788-3.558 1.582-.564-.524-.266-1.433-.316-2.124.196-3.383.73-6.824 1.057-10.243.12-1.837.757-3.834-.097-5.585-.706-1.322-2.535-1.314-3.68-.603-1.864 1.056-3.486 2.56-4.723 4.3-.588.835-1.058 2.223-.046 2.945.531.862.763-.064 1.064-.576.699-1.179 1.399-2.583 2.744-3.129.64-.253.503.69.509 1.05-.317 4.785-1.076 9.532-1.416 14.314-.1 1.409.184 3.241 1.698 3.801 1.874.622 3.752-.509 5.241-1.537 2.381-1.72 4.432-3.864 6.191-6.203-.194 2.008-.763 4.016-.538 6.04.11 1.1 1.115 2.017 2.248 1.881 2.335-.142 4.05-2.01 5.436-3.695.751-1.025 1.77-2.029 1.913-3.343-.04-.747-.822-1.073-1.348-1.457-.842 1.587-1.546 3.497-3.216 4.404-.737.453-.535-.523-.513-.941.526-4.694 1.264-9.364 1.957-14.036.275-1.577.654-3.134 1.018-4.693zm10.04.095c-1.965.3-3.472 1.773-4.871 3.064-.951 1.021-2.156 2.19-2.084 3.69.074.643.661 1.027 1.063 1.473.886-1.493 1.618-3.303 3.24-4.15.632-.415.629.389.572.801-.451 3.858-1.11 7.693-1.616 11.546-.165 1.712-.629 3.444-.379 5.166.134 1.148 1.279 1.958 2.414 1.765 2.412-.282 4.108-2.273 5.533-4.044.666-.96 1.648-1.93 1.612-3.168-.166-.643-.842-.913-1.332-1.27-.85 1.585-1.56 3.487-3.228 4.398-.638.419-.6-.346-.54-.768.438-3.984 1.147-7.935 1.653-11.911.145-1.725.744-3.53.191-5.236-.299-.938-1.265-1.47-2.228-1.356" style="font-size:2.79787px;text-align:start;writing-mode:lr-tb;direction:ltr;text-anchor:start;fill:#000;stroke-width:.233156" transform="translate(-22.19 -53.131)"/></svg>