<?xml version="1.0" encoding="UTF-8" standalone="no"?>
<!-- Created with Inkscape (http://www.inkscape.org/) -->

<svg
   width="210mm"
   height="297mm"
   viewBox="0 0 210 297"
   version="1.1"
   id="svg1"
   inkscape:version="1.4.2 (ebf0e940, 2025-05-08)"
   sodipodi:docname="quill-portada.svg"
   xmlns:inkscape="http://www.inkscape.org/namespaces/inkscape"
   xmlns:sodipodi="http://sodipodi.sourceforge.net/DTD/sodipodi-0.dtd"
   xmlns="http://www.w3.org/2000/svg"
   xmlns:svg="http://www.w3.org/2000/svg">
  <sodipodi:namedview
     id="namedview1"
     pagecolor="#ffffff"
     bordercolor="#000000"
     borderopacity="0.25"
     inkscape:showpageshadow="2"
     inkscape:pageopacity="0.0"
     inkscape:pagecheckerboard="0"
     inkscape:deskcolor="#d1d1d1"
     inkscape:document-units="mm"
     inkscape:zoom="0.85303524"
     inkscape:cx="406.78272"
     inkscape:cy="584.96997"
     inkscape:window-width="2560"
     inkscape:window-height="1387"
     inkscape:window-x="0"
     inkscape:window-y="25"
     inkscape:window-maximized="0"
     inkscape:current-layer="layer1" />
  <defs
     id="defs1" />
  <g
     inkscape:label="Capa 1"
     inkscape:groupmode="layer"
     id="layer1">
    <g
       id="g4">
      <path
         id="text1"
         style="font-size:2.79787px;text-align:start;writing-mode:lr-tb;direction:ltr;text-anchor:start;fill:#000000;stroke-width:0.233156"
         d="m 149.75777,60.56409 c -4.09216,0.219176 -7.59468,2.901219 -9.96956,6.059364 -2.64928,3.77808 -3.69292,8.382971 -4.4686,12.850917 -0.66604,4.44549 -1.13361,8.918688 -1.71439,13.376209 -3.50191,-5.310701 -8.67352,-9.477388 -11.27787,-15.37692 -0.80851,-1.759873 -1.15751,-3.729784 -0.80864,-5.646208 -2.19515,-0.03849 -4.40684,-0.308358 -6.5894,0.08328 -5.01526,0.694294 -9.80017,3.968529 -11.6395,8.749888 -1.11185,2.922531 -1.03907,6.210485 0.004,9.141862 1.53776,-1.472816 3.07546,-2.945683 4.61249,-4.419259 -1.21393,-2.064276 -1.75432,-4.840541 -0.39889,-6.967118 1.4152,-2.034755 4.09281,-2.53811 6.41241,-2.718759 0.74552,-0.0616 1.49432,-0.06372 2.24197,-0.0661 -0.71042,6.197233 -1.35632,12.402865 -2.09835,18.595753 -0.27475,1.793358 -0.68744,3.743045 -2.17314,4.955896 -0.39408,0.472604 -0.89544,0.703504 -1.50425,0.50779 -0.60349,3.78e-4 -1.28628,-0.223703 -1.84285,-0.09031 -1.30992,1.253785 -2.62151,2.505865 -3.93126,3.759835 3.79568,0.19254 7.59155,0.38136 11.38729,0.57262 1.23678,-1.19888 2.47434,-2.39696 3.71154,-3.59542 -1.62306,-0.14559 -3.24605,-0.29214 -4.86907,-0.43822 1.45183,-1.147168 2.68609,-2.658381 3.06716,-4.503008 0.68029,-2.860575 0.76881,-5.819182 1.16448,-8.725409 0.18048,-1.615314 0.36097,-3.230627 0.54146,-4.845941 2.9192,5.584802 7.76707,9.814531 11.13071,15.098321 1.48738,2.509006 2.1326,5.385877 2.86934,8.174387 1.17525,-2.45588 2.42356,-4.8892 3.55485,-7.358314 0.92826,-7.182703 1.76286,-14.399885 2.75229,-21.555008 0.54847,-3.116701 1.05822,-6.357529 2.68674,-9.128552 1.13362,-1.939666 3.54968,-3.002681 5.74859,-2.460247 0.97147,0.226161 1.85566,0.704535 2.71452,1.194264 1.42143,-1.404117 2.84248,-2.808634 4.26386,-4.212807 -1.77584,-0.691587 -3.65769,-1.151117 -5.57809,-1.012786 z m -80.26724,1.600982 c -4.175274,0.209416 -7.865834,2.756594 -10.504525,5.835879 -0.985749,1.170608 -1.826638,2.462233 -2.516231,3.826501 -6.19481,0.02388 -12.391183,-0.04781 -18.585031,0.03589 -3.916011,0.155534 -7.982962,1.245695 -10.882069,3.997736 -2.642207,2.326606 -4.185854,5.786244 -4.161141,9.294429 -0.05078,1.58635 0.322199,3.144045 0.778643,4.65282 1.549286,-1.474997 3.098925,-2.949627 4.647753,-4.425101 -1.243488,-2.077294 -1.761382,-4.902007 -0.344714,-7.02329 1.239541,-1.722107 3.451609,-2.322188 5.421995,-2.564503 2.006449,-0.255888 4.034545,-0.135084 6.051469,-0.16418 -0.697241,6.117658 -1.34936,12.24219 -2.065293,18.356571 -0.371627,2.140789 -1.045238,4.492704 -2.913462,5.817883 -0.846108,-0.09289 -1.692271,-0.185284 -2.538342,-0.278517 -1.339912,1.2787 -2.677233,2.5601 -4.017083,3.83887 4.201748,0.19037 8.403664,0.3771 12.605533,0.56483 1.26167,-1.21111 2.52128,-2.42435 3.78401,-3.63437 -1.985885,-0.1051 -3.97204,-0.20507 -5.958053,-0.307732 1.595023,-0.878902 2.911374,-2.308897 3.349201,-4.101789 0.753179,-2.720741 0.776606,-5.57062 1.169859,-8.35285 0.442451,-3.967632 0.884902,-7.935264 1.327353,-11.902896 3.620794,0 7.241588,10e-7 10.862382,0 -0.919658,3.339573 -0.998937,6.82825 -1.46132,10.244721 -0.679238,6.145309 -1.378441,12.288447 -2.048487,18.434716 1.49713,-0.61548 2.995376,-1.22828 4.493023,-1.84251 0.363543,-2.649524 0.454718,-5.31871 1.04785,-7.911438 0.885808,-3.278391 2.812032,-6.456518 5.519327,-8.637907 0.947769,-0.679555 2.164182,-1.332814 3.358994,-1.051741 0.624265,0.723306 0.260165,1.804998 0.279535,2.679032 -0.391604,4.43119 -1.475369,8.892775 -1.591794,13.397024 -0.05321,1.22751 0.430362,2.79752 1.831288,3.0228 1.788353,0.26462 3.307413,-1.04166 4.572744,-2.11571 1.209024,-1.12639 2.513334,-2.323694 3.030532,-3.937667 0.166323,2.667387 1.930535,5.475077 4.709059,5.994057 2.983791,0.5419 5.834132,-1.1379 7.883322,-3.15147 1.112297,-1.158732 2.376757,-2.322957 2.907959,-3.874851 0.229729,-0.912224 -0.581918,-1.559088 -1.237834,-2.021679 -1.041356,2.117186 -2.478809,4.440033 -4.943719,5.033747 -1.50326,0.401863 -3.362326,-0.02673 -4.092486,-1.5124 -0.509716,-0.884858 -0.715763,-1.905903 -0.839043,-2.907831 4.101838,-1.180635 7.923525,-3.75924 10.0966,-7.467784 0.958802,-1.771484 1.49649,-4.040869 0.589508,-5.936066 -0.881106,-1.581255 -3.005639,-1.642236 -4.555714,-1.192322 -3.097913,0.919161 -5.281817,3.524723 -7.083227,6.05281 -1.997542,2.859115 -3.430221,6.266253 -3.483391,9.758707 -0.255001,-0.427054 -0.723492,-0.647421 -1.10269,-0.946567 -0.928147,1.532485 -1.693635,3.346408 -3.280651,4.321876 -0.580812,0.39745 -0.562321,-0.398702 -0.533114,-0.770034 0.131722,-3.235951 0.805905,-6.419701 1.216914,-9.652538 0.236115,-2.199956 0.878469,-4.417329 0.540244,-6.637452 -0.145016,-1.273165 -1.223669,-2.415053 -2.562292,-2.362486 -2.471468,0.02548 -4.558245,1.627011 -6.380381,3.122786 -1.613922,1.368737 -3.042396,2.944912 -4.313035,4.631245 0.529967,-4.511914 0.943576,-9.076942 1.550952,-13.542586 0.46798,-2.691191 1.288866,-5.626619 3.55707,-7.375367 1.783427,-1.345867 4.231495,-1.361647 6.285139,-0.687527 1.426905,-1.390898 2.853056,-2.782564 4.281494,-4.171905 -1.235527,-0.275577 -2.480031,-0.529607 -3.75463,-0.451859 z M 174.91008,80.78283 c -0.93134,0.945099 -2.00693,1.798931 -2.85172,2.798799 -1.35162,4.075739 -3.14752,7.992679 -5.15111,11.789233 -0.45629,-3.871715 -0.83062,-7.810019 -2.13095,-11.510717 -0.55787,-1.520926 -1.69656,-3.245036 -3.5196,-3.22339 -1.81239,0.124711 -3.06602,1.689227 -4.0355,3.05953 -0.0914,-0.123606 -0.0913,-0.723487 -0.22053,-1.016427 -0.37951,-1.482237 -2.00973,-2.200232 -3.44214,-2.029793 -3.02752,0.189645 -5.41221,2.409626 -7.22714,4.637146 -2.86986,3.527118 -5.04083,7.973084 -4.66847,12.613294 0.16913,2.639975 1.87944,5.413425 4.61246,5.987525 2.94278,0.58812 5.78869,-1.02783 7.84224,-2.99358 1.16245,-1.199297 2.48678,-2.400884 3.04757,-4.012198 0.23366,-0.913266 -0.5812,-1.563742 -1.24175,-2.021679 -1.04392,2.146521 -2.52233,4.504097 -5.03603,5.052063 -1.51461,0.385814 -3.35355,-0.11671 -4.04429,-1.617163 -0.47201,-0.866981 -0.67545,-1.851897 -0.78905,-2.823332 4.10044,-1.180713 7.92308,-3.759 10.09464,-7.467784 0.16058,-0.715309 0.42715,0.182329 0.81866,0.202983 0.67421,0.439364 0.97052,0.165755 0.9904,-0.587934 0.25558,-0.979259 0.46479,-2.28632 1.52248,-2.709468 0.96684,-0.122218 1.29028,1.057015 1.5463,1.770635 0.64203,2.523377 0.88252,5.129536 1.32121,7.692875 0.49317,3.378766 0.63228,6.782102 0.62663,10.225492 1.49002,-1.34292 2.97794,-2.68814 4.4656,-4.03364 1.43991,-3.996535 3.22883,-7.864867 5.30192,-11.574998 0.95115,5.054955 1.90929,10.087138 2.27569,15.238358 -0.0659,0.90979 0.64701,-0.3178 0.98226,-0.51087 0.89036,-0.93747 1.90772,-1.79463 2.72165,-2.78049 1.30129,-3.703386 3.47833,-7.011722 5.45588,-10.380136 1.21515,-2.093552 2.62728,-4.212573 2.96805,-6.654171 0.17088,-1.480405 -0.92292,-2.729046 -2.18669,-3.344293 -0.44849,0.08261 -0.83818,0.744144 -1.26456,1.042957 -0.78203,0.733388 -1.56493,1.465868 -2.3462,2.200058 0.90237,0.569483 1.9595,1.450147 1.63695,2.649037 -0.60781,2.581682 -2.03749,4.878406 -3.30235,7.184144 -0.53235,0.942747 -1.09877,1.86548 -1.65638,2.793549 -0.76198,-4.418791 -1.52465,-8.843286 -2.02298,-13.300037 -0.10154,-1.031848 -0.20234,-2.06377 -0.30579,-3.09543 -0.26245,0.24995 -0.52491,0.499901 -0.78736,0.749852 z m -91.123748,3.870016 c 0.997107,-0.04469 1.913591,0.734729 1.890549,1.752676 0.253137,2.210597 -1.507556,4.064289 -3.393415,4.933257 -1.157961,0.527491 -2.485917,0.801747 -3.752051,0.59445 0.371977,-2.469527 1.248347,-5.093517 3.274316,-6.703125 0.5648,-0.424305 1.273089,-0.638435 1.980601,-0.577258 z m 67.632328,0 c 1.03208,-0.04867 1.93664,0.784636 1.89984,1.824965 0.20433,2.301888 -1.71095,4.173331 -3.70165,4.992532 -1.08401,0.426158 -2.29674,0.662901 -3.45506,0.460938 0.38419,-2.519386 1.28557,-5.218822 3.41579,-6.799309 0.54138,-0.360028 1.19045,-0.535404 1.84108,-0.479126 z m 6.49667,35.640414 c -2.61905,0.1169 -5.08837,1.26429 -7.15083,2.82217 -4.66866,-1.79999 -10.34189,-0.98379 -14.14716,2.31458 -3.81813,3.16149 -5.82594,8.02211 -6.29147,12.8592 -0.67591,6.17789 -1.3782,12.3546 -2.0565,18.53115 -0.0393,1.54092 -0.39518,3.35258 0.67831,4.64465 1.10158,1.15593 2.92574,0.63271 4.06795,-0.17611 1.72665,-1.20032 3.30935,-2.71745 4.31484,-4.57619 0.39778,-0.8143 0.70302,-2.05201 -0.22132,-2.6391 -0.44692,-0.26846 -1.0517,-0.78273 -1.07511,0.0821 -0.53543,1.52139 -1.40929,3.07757 -2.83796,3.91951 -0.53556,0.26046 -0.41063,-0.65428 -0.48594,-0.97103 0.0127,-2.88806 0.54222,-5.74649 0.80357,-8.61845 0.52692,-4.53361 1.0091,-9.07129 1.48015,-13.61028 0.24459,-1.74108 0.62816,-3.55921 1.30639,-5.11652 0.70647,-1.82774 2.32513,-3.2313 4.24833,-3.65937 2.19884,-0.53211 4.57371,-0.5039 6.63338,0.30121 0.46827,0.14206 -0.37174,0.6732 -0.44411,0.99694 -2.3431,3.4886 -3.31479,7.67824 -3.65348,11.80956 -0.64106,5.7731 -1.3152,11.54426 -1.95002,17.31685 -0.0327,1.58821 -0.40838,3.3897 0.54608,4.79439 0.91182,1.20825 2.69007,0.90175 3.8163,0.18854 1.78832,-1.12143 3.36205,-2.64715 4.4721,-4.43996 0.51081,-0.87011 1.01116,-2.29307 -0.025,-2.99153 -0.44687,-0.26981 -1.06409,-0.78672 -1.07977,0.0819 -0.51504,1.53201 -1.43328,3.04344 -2.82866,3.9174 -0.55363,0.25315 -0.43128,-0.70885 -0.49524,-1.0431 0.0447,-2.99592 0.57199,-5.96246 0.84625,-8.94296 0.60962,-5.17666 1.09184,-10.36989 1.78736,-15.5354 0.39714,-2.21041 0.82376,-4.43972 2.23851,-6.25352 1.65904,-2.00651 4.65646,-2.17231 6.98673,-1.43276 0.47864,-0.13525 0.81961,-0.78785 1.24629,-1.11781 1.00755,-1.02412 2.01738,-2.04604 3.02269,-3.07235 -1.23689,-0.26129 -2.48348,-0.45565 -3.75267,-0.3837 z m -31.13386,8.12373 c -1.14011,1.2862 -2.63453,2.2149 -4.22665,2.84748 -0.87166,2.14164 -1.74633,4.28205 -2.61865,6.42341 2.67426,-1.71214 5.63842,-3.33543 7.35341,-6.10398 0.5964,-1.0149 0.99322,-2.43879 0.11633,-3.42186 -0.17103,-0.53744 -0.39122,0.12324 -0.62444,0.25495 z m -50.298748,0.65246 c -4.497824,0.17114 -8.761396,2.3353 -11.826053,5.56477 -3.571865,3.56518 -5.8056,8.43479 -6.021685,13.47491 -0.285552,4.07933 0.685644,8.47046 3.632276,11.47396 1.961258,2.11405 4.929742,3.13523 7.789997,2.86609 1.275754,-0.0669 2.541229,-0.28752 3.773525,-0.61995 4.876152,4.24715 10.498074,7.75976 16.683358,9.76522 3.406996,1.07245 7.321031,1.49857 10.59312,-0.22725 2.56276,-1.34614 4.97148,-3.69487 5.1759,-6.72348 0.10518,-0.8027 -0.14972,-1.58255 -0.29416,-2.36263 -1.68393,0.91647 -3.3669,1.83471 -5.04927,2.754 0.6934,1.15562 0.76347,2.7554 -0.23699,3.7629 -1.135608,1.31353 -3.129636,1.23996 -4.571525,1.0117 -4.574477,-0.71603 -8.5782,-3.29872 -12.203503,-6.02793 -1.766419,-1.35147 -3.369552,-2.73753 -4.994785,-4.22546 4.152562,-2.76635 7.437379,-6.95456 8.61056,-11.83262 0.892645,-3.743 1.018627,-7.78472 -0.255182,-11.45759 -1.19263,-3.38845 -4.031894,-6.37103 -7.682347,-7.0139 -1.026765,-0.2074 -2.079693,-0.23014 -3.123236,-0.18274 z m -1.854791,2.84945 c 2.564224,-0.0759 4.756931,1.69121 6.005746,3.79383 2.384464,3.76286 2.523461,8.45679 1.889133,12.73434 -0.531936,3.61192 -2.254297,7.19153 -5.280152,9.36606 -0.431457,-0.59104 -0.915259,-1.13816 -1.412149,-1.67499 -1.115561,1.14217 -2.231518,2.28395 -3.347243,3.42595 -2.751775,-0.15452 -5.349586,-1.76069 -6.663213,-4.17739 -1.556033,-2.72147 -1.876781,-5.89545 -1.815152,-8.94281 0.07536,-4.59647 1.596516,-9.42309 5.160501,-12.52475 1.513952,-1.29311 3.463245,-2.02026 5.462529,-2.00024 z m 36.614029,6.7584 c -1.33636,0.4514 -2.67328,0.90112 -4.00925,1.35363 -0.40975,2.45594 -0.5843,4.95781 -1.17835,7.37894 -0.97394,3.37151 -3.03712,6.37021 -5.53455,8.81141 -0.968881,0.85648 -2.18895,1.78819 -3.557993,1.58212 -0.563881,-0.52411 -0.26601,-1.43273 -0.316315,-2.12386 0.19647,-3.38273 0.730563,-6.82413 1.057717,-10.24288 0.119101,-1.83754 0.757057,-3.83442 -0.09702,-5.58492 -0.706316,-1.32238 -2.535383,-1.31443 -3.680975,-0.60356 -1.863286,1.0559 -3.485933,2.56073 -4.722133,4.30001 -0.588387,0.83563 -1.057873,2.22312 -0.04628,2.9451 0.531171,0.86194 0.763076,-0.0644 1.06419,-0.57626 0.698487,-1.17839 1.398688,-2.583 2.743323,-3.1282 0.639766,-0.25306 0.503723,0.68907 0.509188,1.04885 -0.316649,4.78552 -1.076214,9.53289 -1.416199,14.31504 -0.10018,1.4085 0.184189,3.24069 1.698167,3.80111 1.874275,0.62151 3.752554,-0.50936 5.241444,-1.5378 2.381106,-1.71975 4.432176,-3.86324 6.191006,-6.20218 -0.19446,2.0073 -0.76328,4.0151 -0.53861,6.03972 0.11076,1.09995 1.11574,2.01664 2.24877,1.88127 2.33426,-0.14289 4.04984,-2.00988 5.43529,-3.69593 0.75179,-1.0249 1.77009,-2.02842 1.91306,-3.34277 -0.0394,-0.74667 -0.82203,-1.07272 -1.34751,-1.45686 -0.84263,1.58739 -1.54621,3.49734 -3.21602,4.40368 -0.73692,0.45313 -0.53498,-0.52233 -0.51315,-0.94072 0.52579,-4.69424 1.2642,-9.36363 1.95751,-14.03571 0.27478,-1.57757 0.65315,-3.1343 1.0176,-4.69307 -0.30097,0.10128 -0.60194,0.20256 -0.90291,0.30384 z m 10.03977,0.0954 c -1.9647,0.29944 -3.47219,1.7726 -4.87104,3.06369 -0.95098,1.02125 -2.156,2.1899 -2.08361,3.69023 0.0742,0.6429 0.66107,1.02714 1.06319,1.47303 0.8857,-1.4935 1.61753,-3.30372 3.23951,-4.15048 0.63228,-0.41502 0.62867,0.38891 0.57156,0.80134 -0.45055,3.85789 -1.10882,7.69334 -1.61599,11.54585 -0.16501,1.71213 -0.62852,3.44388 -0.37853,5.16647 0.13436,1.14779 1.27867,1.95766 2.41401,1.76436 2.41223,-0.28223 4.10801,-2.27297 5.53304,-4.04335 0.66586,-0.95955 1.64791,-1.92953 1.61192,-3.16887 -0.16618,-0.64213 -0.84186,-0.91252 -1.33184,-1.26988 -0.85072,1.58571 -1.5601,3.48741 -3.22777,4.39784 -0.63802,0.41897 -0.60119,-0.34602 -0.54057,-0.76738 0.43825,-3.98395 1.14685,-7.93491 1.65319,-11.9115 0.14539,-1.7243 0.74368,-3.52927 0.19145,-5.2355 -0.29916,-0.93769 -1.26581,-1.46938 -2.22852,-1.35585 z"
         inkscape:export-filename="logo.svg"
         inkscape:export-xdpi="300"
         inkscape:export-ydpi="300" />
      <text
         xml:space="preserve"
         style="font-style:normal;font-variant:normal;font-weight:normal;font-stretch:normal;font-size:4.23333px;font-family:'American Typewriter';-inkscape-font-specification:'American Typewriter, Normal';font-variant-ligatures:normal;font-variant-caps:normal;font-variant-numeric:normal;font-variant-east-asian:normal;text-align:center;writing-mode:lr-tb;direction:ltr;text-anchor:middle;fill:#000000;stroke-width:0.264583"
         x="104.97037"
         y="192.38127"
         id="text4"><tspan
           sodipodi:role="line"
           id="tspan4"
           style="font-style:normal;font-variant:normal;font-weight:normal;font-stretch:normal;font-size:4.23333px;font-family:'American Typewriter';-inkscape-font-specification:'American Typewriter, Normal';font-variant-ligatures:normal;font-variant-caps:normal;font-variant-numeric:normal;font-variant-east-asian:normal;stroke-width:0.264583"
           x="104.97037"
           y="192.38127">Manual del escritor</tspan></text>
    </g>
  </g>
</svg>
