<svg xmlns="http://www.w3.org/2000/svg" width="210mm" height="297mm" viewBox="0 0 210 297"><path d="M149.758 60.564c-4.092.22-7.595 2.901-9.97 6.06-2.65 3.778-3.693 8.382-4.468 12.85-.666 4.446-1.134 8.92-1.715 13.377-3.502-5.311-8.673-9.478-11.278-15.377-.808-1.76-1.157-3.73-.808-5.647-2.195-.038-4.407-.308-6.59.084-5.015.694-9.8 3.968-11.64 8.75-1.111 2.922-1.038 6.21.005 9.141q2.307-2.208 4.612-4.419c-1.214-2.064-1.754-4.84-.399-6.967 1.416-2.035 4.093-2.538 6.413-2.719.745-.061 1.494-.063 2.242-.066-.71 6.197-1.357 12.403-2.099 18.596-.274 1.793-.687 3.743-2.173 4.956-.394.472-.895.703-1.504.508-.603 0-1.286-.224-1.843-.09l-3.931 3.76 11.387.572 3.712-3.596-4.87-.438c1.453-1.147 2.687-2.658 3.068-4.503.68-2.86.769-5.819 1.164-8.725l.542-4.846c2.919 5.585 7.767 9.814 11.13 15.098 1.488 2.51 2.133 5.386 2.87 8.175 1.175-2.456 2.423-4.89 3.555-7.359.928-7.182 1.763-14.4 2.752-21.555.548-3.116 1.058-6.357 2.687-9.128 1.133-1.94 3.55-3.003 5.748-2.46.972.226 1.856.704 2.715 1.194l4.264-4.213c-1.776-.692-3.658-1.151-5.578-1.013M69.49 62.165c-4.176.21-7.866 2.757-10.505 5.836a19.8 19.8 0 0 0-2.516 3.826c-6.195.024-12.391-.047-18.585.036-3.916.156-7.983 1.246-10.882 3.998a12.4 12.4 0 0 0-4.161 9.295c-.051 1.586.322 3.144.778 4.652l4.648-4.425c-1.244-2.077-1.761-4.902-.345-7.023 1.24-1.722 3.452-2.322 5.422-2.565 2.007-.255 4.035-.135 6.052-.164-.698 6.118-1.35 12.242-2.066 18.357-.371 2.14-1.045 4.493-2.913 5.818l-2.538-.279-4.018 3.84q6.303.284 12.606.564 1.891-1.818 3.784-3.634-2.979-.157-5.958-.308c1.595-.88 2.911-2.31 3.35-4.102.752-2.72.776-5.57 1.169-8.353l1.327-11.903h10.863c-.92 3.34-1 6.829-1.462 10.245-.679 6.145-1.378 12.288-2.048 18.435q2.246-.923 4.493-1.843c.364-2.65.455-5.319 1.048-7.911.886-3.279 2.812-6.457 5.52-8.638.947-.68 2.163-1.333 3.358-1.052.624.723.26 1.805.28 2.68-.392 4.43-1.476 8.892-1.592 13.396-.053 1.228.43 2.798 1.831 3.023 1.789.265 3.308-1.042 4.573-2.116 1.209-1.126 2.513-2.323 3.03-3.937.167 2.667 1.931 5.475 4.71 5.994 2.983.542 5.834-1.138 7.883-3.152 1.112-1.159 2.377-2.323 2.908-3.875.23-.912-.582-1.559-1.238-2.021-1.041 2.117-2.479 4.44-4.944 5.033-1.503.402-3.362-.026-4.092-1.512-.51-.885-.716-1.906-.84-2.908 4.103-1.18 7.924-3.76 10.097-7.468.96-1.771 1.497-4.04.59-5.936-.881-1.581-3.006-1.642-4.556-1.192-3.098.92-5.282 3.525-7.083 6.053-1.998 2.859-3.43 6.266-3.483 9.758-.255-.427-.724-.647-1.103-.946-.928 1.532-1.694 3.346-3.28 4.322-.582.397-.563-.399-.534-.77.132-3.236.806-6.42 1.217-9.653.236-2.2.878-4.417.54-6.637-.145-1.273-1.223-2.415-2.562-2.363-2.472.026-4.558 1.627-6.38 3.123-1.614 1.369-3.043 2.945-4.313 4.631.53-4.512.943-9.077 1.55-13.542.468-2.691 1.29-5.627 3.558-7.376 1.783-1.345 4.231-1.361 6.285-.687q2.14-2.088 4.281-4.172c-1.235-.276-2.48-.53-3.754-.452m105.42 18.618c-.932.945-2.008 1.799-2.853 2.799-1.351 4.075-3.147 7.992-5.15 11.789-.457-3.872-.831-7.81-2.132-11.51-.558-1.522-1.696-3.246-3.52-3.224-1.812.124-3.065 1.689-4.035 3.06-.091-.124-.091-.724-.22-1.017-.38-1.482-2.01-2.2-3.442-2.03-3.028.19-5.413 2.41-7.228 4.637-2.87 3.527-5.04 7.973-4.668 12.614.169 2.64 1.88 5.413 4.612 5.987 2.943.588 5.79-1.028 7.843-2.994 1.162-1.199 2.486-2.4 3.047-4.012.234-.913-.581-1.563-1.242-2.021-1.043 2.146-2.522 4.504-5.036 5.052-1.514.385-3.353-.117-4.044-1.618-.472-.867-.675-1.851-.789-2.823 4.1-1.18 7.923-3.759 10.095-7.468.16-.715.427.183.818.203.675.44.97.166.99-.588.256-.979.466-2.286 1.523-2.71.967-.121 1.29 1.058 1.547 1.772.642 2.523.882 5.13 1.32 7.692.494 3.38.633 6.783.627 10.226q2.235-2.015 4.466-4.034a78 78 0 0 1 5.302-11.575c.951 5.055 1.91 10.087 2.276 15.239-.066.91.647-.318.982-.511.89-.938 1.908-1.795 2.722-2.78 1.3-3.704 3.478-7.012 5.455-10.38 1.216-2.094 2.628-4.213 2.968-6.655.171-1.48-.922-2.73-2.186-3.344-.449.082-.838.744-1.265 1.043l-2.346 2.2c.902.57 1.96 1.45 1.637 2.649-.608 2.581-2.038 4.878-3.302 7.184-.533.943-1.1 1.865-1.657 2.793-.762-4.418-1.524-8.843-2.023-13.3q-.15-1.547-.306-3.095zm-91.125 3.87c.997-.045 1.914.735 1.89 1.753.254 2.21-1.507 4.064-3.393 4.933-1.157.527-2.485.802-3.752.594.372-2.47 1.249-5.093 3.275-6.703a2.9 2.9 0 0 1 1.98-.577m67.633 0c1.032-.049 1.936.784 1.9 1.825.204 2.302-1.711 4.173-3.702 4.992-1.084.427-2.297.663-3.455.461.384-2.52 1.285-5.219 3.416-6.799a2.9 2.9 0 0 1 1.84-.48m6.496 35.64c-2.619.117-5.088 1.265-7.15 2.822-4.67-1.8-10.342-.983-14.148 2.315-3.818 3.162-5.826 8.022-6.291 12.86-.676 6.177-1.378 12.354-2.057 18.53-.039 1.541-.395 3.353.679 4.645 1.101 1.156 2.925.633 4.068-.176 1.726-1.2 3.309-2.718 4.314-4.576.398-.815.703-2.052-.22-2.64-.448-.268-1.053-.782-1.076.083-.535 1.521-1.41 3.077-2.838 3.92-.535.26-.41-.655-.486-.972.013-2.888.542-5.746.804-8.618a1113 1113 0 0 0 1.48-13.61c.244-1.742.628-3.56 1.306-5.117a6 6 0 0 1 4.249-3.66c2.198-.532 4.573-.503 6.633.302.468.142-.372.673-.444.997-2.343 3.488-3.315 7.678-3.654 11.81-.64 5.772-1.315 11.544-1.95 17.316-.032 1.588-.408 3.39.546 4.795.912 1.208 2.69.901 3.817.188 1.788-1.121 3.362-2.647 4.472-4.44.51-.87 1.011-2.293-.025-2.991-.447-.27-1.064-.787-1.08.081-.515 1.532-1.433 3.044-2.829 3.918-.553.253-.43-.709-.495-1.043.045-2.996.572-5.963.846-8.943.61-5.177 1.092-10.37 1.788-15.536.397-2.21.824-4.44 2.238-6.253 1.66-2.007 4.657-2.172 6.987-1.433.479-.135.82-.788 1.246-1.118q1.514-1.535 3.023-3.072c-1.237-.261-2.483-.456-3.753-.384m-31.134 8.124c-1.14 1.286-2.634 2.215-4.226 2.847l-2.619 6.424c2.674-1.712 5.639-3.336 7.354-6.104.596-1.015.993-2.439.116-3.422-.171-.537-.391.123-.625.255m-50.298.652c-4.498.172-8.762 2.336-11.826 5.565-3.572 3.565-5.806 8.435-6.022 13.475-.286 4.08.686 8.47 3.632 11.474 1.962 2.114 4.93 3.135 7.79 2.866a18 18 0 0 0 3.774-.62c4.876 4.247 10.498 7.76 16.683 9.765 3.407 1.073 7.321 1.499 10.593-.227 2.563-1.346 4.972-3.695 5.176-6.723.105-.803-.15-1.583-.294-2.363q-2.526 1.376-5.05 2.754c.694 1.156.764 2.755-.236 3.763-1.136 1.314-3.13 1.24-4.572 1.012-4.574-.716-8.578-3.299-12.203-6.028-1.767-1.352-3.37-2.738-4.995-4.226 4.152-2.766 7.437-6.954 8.61-11.832.893-3.743 1.02-7.785-.255-11.458-1.192-3.388-4.032-6.37-7.682-7.014-1.027-.207-2.08-.23-3.123-.183m-1.855 2.85c2.564-.076 4.757 1.691 6.006 3.794 2.384 3.763 2.523 8.457 1.889 12.734-.532 3.612-2.254 7.192-5.28 9.366a19 19 0 0 0-1.412-1.675l-3.348 3.426c-2.752-.154-5.35-1.76-6.663-4.177-1.556-2.722-1.877-5.896-1.815-8.943.075-4.597 1.596-9.423 5.16-12.525a8.32 8.32 0 0 1 5.463-2m36.614 6.758-4.01 1.354c-.409 2.456-.584 4.958-1.178 7.379-.974 3.371-3.037 6.37-5.534 8.811-.97.857-2.19 1.788-3.558 1.582-.564-.524-.266-1.432-.316-2.123.196-3.383.73-6.825 1.057-10.243.12-1.838.757-3.835-.097-5.585-.706-1.323-2.535-1.315-3.68-.604-1.864 1.056-3.487 2.56-4.723 4.3-.588.836-1.058 2.223-.046 2.945.531.862.763-.064 1.064-.576.698-1.178 1.399-2.583 2.743-3.128.64-.253.504.689.51 1.049-.317 4.785-1.077 9.533-1.417 14.315-.1 1.408.185 3.24 1.698 3.8 1.875.622 3.753-.509 5.242-1.537 2.381-1.72 4.432-3.863 6.19-6.202-.194 2.007-.762 4.015-.538 6.04.111 1.1 1.116 2.016 2.25 1.88 2.333-.142 4.049-2.009 5.434-3.695.752-1.025 1.77-2.029 1.913-3.343-.039-.747-.822-1.073-1.347-1.457-.843 1.588-1.546 3.498-3.216 4.404-.737.453-.535-.522-.513-.94.526-4.695 1.264-9.364 1.957-14.036.275-1.578.653-3.135 1.018-4.694zm10.04.096c-1.965.3-3.472 1.772-4.871 3.063-.951 1.022-2.156 2.19-2.084 3.69.074.644.661 1.028 1.063 1.474.886-1.494 1.618-3.304 3.24-4.15.632-.416.628.388.571.8-.45 3.858-1.108 7.694-1.616 11.546-.165 1.712-.628 3.444-.378 5.167.134 1.148 1.278 1.957 2.414 1.764 2.412-.282 4.108-2.273 5.533-4.043.666-.96 1.648-1.93 1.612-3.169-.166-.642-.842-.913-1.332-1.27-.85 1.586-1.56 3.488-3.228 4.398-.638.419-.601-.346-.54-.767.438-3.984 1.146-7.935 1.653-11.912.145-1.724.743-3.53.191-5.235-.299-.938-1.266-1.47-2.228-1.356" style="font-size:2.79787px;text-align:start;writing-mode:lr-tb;direction:ltr;text-anchor:start;fill:#000;stroke-width:.233156"/><text xml:space="preserve" x="104.97" y="192.381" style="font-style:normal;font-variant:normal;font-weight:400;font-stretch:normal;font-size:4.23333px;font-family:&quot;American Typewriter&quot;;-inkscape-font-specification:&quot;American Typewriter, Normal&quot;;font-variant-ligatures:normal;font-variant-caps:normal;font-variant-numeric:normal;font-variant-east-asian:normal;text-align:center;writing-mode:lr-tb;direction:ltr;text-anchor:middle;fill:#000;stroke-width:.264583"><tspan x="104.97" y="192.381" style="font-style:normal;font-variant:normal;font-weight:400;font-stretch:normal;font-size:4.23333px;font-family:&quot;American Typewriter&quot;;-inkscape-font-specification:&quot;American Typewriter, Normal&quot;;font-variant-ligatures:normal;font-variant-caps:normal;font-variant-numeric:normal;font-variant-east-asian:normal;stroke-width:.264583">Manual del escritor</tspan></text></svg>